# xmcd
#
# Track frame offsets: 
#        150
#        31896
#        55925
#        65281
#        88936
#        102520
#        127247
#        150305
#        168574
#        183764
#        200447
#        214569
#        236345
#        249083
#        265812
#        286358
#
# Disc length: 4110 seconds
#
# Revision: 1
# Processed by: cddbd v1.5.2PL0 Copyright (c) Steve Scherf et al.
# Submitted via: ExactAudioCopy v0.95b4
#
DISCID=d9100c10
DTITLE=Lightnin' Hopkins - Cadillac Blues
DYEAR=2006
DGENRE=Blues
TTITLE0=Big Black Cadillac Blues
TTITLE1=Early in the Mornin' Blues
TTITLE2=Coffee House Blues
TTITLE3=I've Been Buked and Scorned
TTITLE4=Stool Pidgeon Blues
TTITLE5=Brand New Car
TTITLE6=Drinkin' in the Blues
TTITLE7=Shining Moon
TTITLE8=Ball of Twine
TTITLE9=Fugitive Blues
TTITLE10=G String Blues
TTITLE11=Grandma Told Grandpa
TTITLE12=Rain
TTITLE13=Goin' to Dallas
TTITLE14=Last Night
TTITLE15=Shake It Baby
EXTD=
EXTT0=
EXTT1=
EXTT2=
EXTT3=
EXTT4=
EXTT5=
EXTT6=
EXTT7=
EXTT8=
EXTT9=
EXTT10=
EXTT11=
EXTT12=
EXTT13=
EXTT14=
EXTT15=
PLAYORDER=
